<?xml version="1.0" encoding="utf-8"?>
<svg xmlns="http://www.w3.org/2000/svg" height="32" width="32" viewBox="0 0 32 32">
  <g>
    <path id="path1" transform="rotate(1,16,16) translate(3,6.29663027133948) scale(0.316356211907954,0.316356211907954)  " fill="#1A64BF" d="M25.03125,13.9695816040039L30.2890605926514,14.5242700576782 34.9375,16.1883316040039 38.7734375,18.6688003540039 41.59375,21.6727066040039 43.328125,24.8484878540039 43.90625,27.8445816040039 43.625,29.3445835113525 42.78125,30.6570816040039 41.5390625,31.5711460113525 40.0625,31.8758316040039 38.50390625,31.6648960113525 37.390625,31.0320816040039 36.44921875,29.8836460113525 35.40625,28.1258316040039 33.43359375,25.1492691040039 31.140625,23.0320816040039 28.40234375,21.7664566040039 25.09375,21.3445816040039 22.3798828125,21.6160659790039 19.95703125,22.4305191040039 17.8251953125,23.7879409790039 15.984375,25.6883316040039 14.5009765625,28.0887222290039 13.44140625,30.9461441040039 12.8056640625,34.2605972290039 12.59375,38.0320816040039 12.96875,42.9266128540039 14.09375,46.9227066040039 15.90625,50.0203628540039 18.34375,52.2195816040039 21.328125,53.5320816040039 24.78125,53.9695816040039 28.4726543426514,53.4734878540039 31.546875,51.9852066040039 33.97265625,49.5359878540039 35.71875,46.1570816040039 37.1875,43.2039566040039 38.328125,42.3484878540039 40,42.0633316040039 41.5390625,42.3523941040039 42.84375,43.2195816040039 43.734375,44.5164566040039 44.03125,46.0945816040039 43.76171875,48.3719253540039 42.953125,50.8289566040039 41.56640625,53.3523941040039 39.5625,55.8289566040039 36.9296875,58.0516128540039 33.65625,59.8133316040039 29.765625,60.9617691040039 25.28125,61.3445816040039 18.6875,60.6570816040039 15.8554677963257,59.7781753540039 13.296875,58.5164566040039 10.97265625,56.8328628540039 8.84375,54.6883316040039 5.75,49.8602066040039 3.82812523841858,44.1570816040039 3.1875,37.7195816040039 3.58984351158142,32.4773941040039 4.79687452316284,27.8133316040039 6.75390625,23.7547397613525 9.40625,20.3289566040039 12.6640625,17.5906772613525 16.4375,15.5945816040039 20.6015625,14.3758316040039 25.03125,13.9695816040039z M62.4045829772949,33.0945816040039L60.5608329772949,42.1883316040039 67.5295867919922,42.1883316040039 69.3108367919922,33.0945816040039 62.4045829772949,33.0945816040039z M75.9045867919922,13.9695816040039L77.3459930419922,14.1805191040039 78.4202117919922,14.8133316040039 79.0881805419922,15.8055191040039 79.3108367919922,17.0945816040039 79.2327117919922,18.3758316040039 79.0295867919922,19.5789566040039 78.8733367919922,20.3133316040039 77.7170867919922,26.1883316040039 79.6721572875977,26.4402847290039 81.0686492919922,27.1023941040039 81.9065399169922,28.1746597290039 82.1858367919922,29.6570816040039 81.9202117919922,31.0633335113525 81.1233367919922,32.1570816040039 79.8030166625977,32.8602066040039 77.9670867919922,33.0945816040039 76.3733367919922,33.0945816040039 74.4983367919922,42.1883316040039 77.9670867919922,42.1883316040039 79.8030166625977,42.4383316040039 81.1233367919922,43.1883316040039 81.9202117919922,44.3211441040039 82.1858367919922,45.7195816040039 81.9241180419922,47.1063003540039 81.1389617919922,48.2039566040039 79.8225479125977,48.9188003540039 77.9670867919922,49.1570816040039 73.1545867919922,49.1570816040039 71.6858367919922,56.3445816040039 71.3616180419922,57.8680191040039 71.0764617919922,59.0008316040039 70.0608367919922,60.6414566040039 67.9045867919922,61.3445816040039 66.5061492919922,61.1258316040039 65.4358367919922,60.4695816040039 64.7561492919922,59.4617691040039 64.5295867919922,58.1883316040039 64.9670867919922,55.0008316040039 66.1233367919922,49.1570816040039 59.2170829772949,49.1570816040039 57.7483329772949,56.3445816040039 57.1741142272949,58.6297378540039 56.5764579772949,60.1727066040039 55.6194267272949,61.0516128540039 53.9670829772949,61.3445816040039 52.5452079772949,61.1258316040039 51.4670829772949,60.4695816040039 50.7873954772949,59.4617691040039 50.5608329772949,58.1883316040039 50.7327079772949,56.5789566040039 51.0295829772949,55.0008316040039 52.1858329772949,49.1570816040039 50.2991142272949,48.9070816040039 48.9514579772949,48.2508316040039 48.1428642272949,47.1883316040039 47.8733329772949,45.7195816040039 48.1428642272949,44.3016128540039 48.9514579772949,43.1727066040039 50.2834892272949,42.4344253540039 52.1233329772949,42.1883316040039 53.5920829772949,42.1883316040039 55.3733329772949,33.0945816040039 52.1233329772949,33.0945816040039 50.3225517272949,32.8406753540039 48.9827079772949,32.0789566040039 48.1506767272949,30.9500503540039 47.8733329772949,29.5945816040039 48.1428642272949,28.1844272613525 48.9514579772949,27.0789566040039 50.2834892272949,26.3641128540039 52.1233329772949,26.1258316040039 56.7795829772949,26.1258316040039 58.2483329772949,18.9695816040039 58.6116142272949,17.3523941040039 59.0139579772949,16.1258316040039 60.1702079772949,14.5633316040039 62.0920829772949,14.0320816040039 63.5530204772949,14.2508316040039 64.6233367919922,14.9070816040039 65.2795867919922,15.9070835113525 65.4983367919922,17.1570816040039 65.3655242919922,18.1023960113525 64.9670867919922,20.3133316040039 63.8108329772949,26.1258316040039 70.6545867919922,26.1258316040039 72.1545867919922,18.9695816040039 72.7483367919922,16.3445816040039 73.7639617919922,14.6570816040039 75.9045867919922,13.9695816040039z" />
  </g>
</svg>

