<?xml version="1.0" encoding="UTF-8" standalone="no"?>
<svg
   xmlns:osb="http://www.openswatchbook.org/uri/2009/osb"
   xmlns:dc="http://purl.org/dc/elements/1.1/"
   xmlns:cc="http://creativecommons.org/ns#"
   xmlns:rdf="http://www.w3.org/1999/02/22-rdf-syntax-ns#"
   xmlns:svg="http://www.w3.org/2000/svg"
   xmlns="http://www.w3.org/2000/svg"
   xmlns:sodipodi="http://sodipodi.sourceforge.net/DTD/sodipodi-0.dtd"
   xmlns:inkscape="http://www.inkscape.org/namespaces/inkscape"
   height="32"
   width="32"
   viewBox="0 0 32 32"
   version="1.1"
   id="svg5"
   sodipodi:docname="css.light.svg"
   inkscape:version="0.92.1 r15371">
  <metadata
     id="metadata11">
    <rdf:RDF>
      <cc:Work
         rdf:about="">
        <dc:format>image/svg+xml</dc:format>
        <dc:type
           rdf:resource="http://purl.org/dc/dcmitype/StillImage" />
      </cc:Work>
    </rdf:RDF>
  </metadata>
  <defs
     id="defs9">
    <linearGradient
       id="linearGradient4498"
       osb:paint="solid">
      <stop
         style="stop-color:#000000;stop-opacity:1;"
         offset="0"
         id="stop4496" />
    </linearGradient>
  </defs>
  <sodipodi:namedview
     pagecolor="#ffffff"
     bordercolor="#666666"
     borderopacity="1"
     objecttolerance="10"
     gridtolerance="10"
     guidetolerance="10"
     inkscape:pageopacity="0"
     inkscape:pageshadow="2"
     inkscape:window-width="1600"
     inkscape:window-height="837"
     id="namedview7"
     showgrid="false"
     inkscape:zoom="7.375"
     inkscape:cx="-11.254237"
     inkscape:cy="16"
     inkscape:window-x="-8"
     inkscape:window-y="-8"
     inkscape:window-maximized="1"
     inkscape:current-layer="svg5" />
  <g
     id="g3"
     transform="matrix(0.9783331,0,0,0.97327651,0.08604582,-1.5803864)"
     style="fill:#C5CB41">
    <path
       id="path1"
       transform="matrix(0.31630803,0.00552118,-0.00552118,0.31630803,3.1713271,6.0712269)"
       d="m 25.03125,13.969582 5.257811,0.554688 4.648439,1.664062 3.835937,2.480468 2.820313,3.003907 1.734375,3.175781 0.578125,2.996094 -0.28125,1.500002 -0.84375,1.312498 -1.242188,0.914064 -1.476562,0.304686 -1.558594,-0.210936 -1.113281,-0.632814 -0.941406,-1.148436 -1.042969,-1.757814 -1.972656,-2.976563 -2.292969,-2.117187 -2.738281,-1.265625 -3.308594,-0.421875 -2.713867,0.271484 -2.422852,0.814453 -2.131836,1.357422 -1.84082,1.900391 -1.483398,2.40039 -1.059571,2.857422 -0.635742,3.314453 -0.211914,3.771485 0.375,4.894531 1.125,3.996094 1.8125,3.097656 2.4375,2.199219 2.984375,1.3125 3.453125,0.4375 3.691404,-0.496094 3.074221,-1.488281 2.425781,-2.449219 1.746094,-3.378906 1.46875,-2.953125 1.140625,-0.855469 L 40,42.063332 l 1.539062,0.289062 1.304688,0.867188 0.890625,1.296875 0.296875,1.578125 -0.269531,2.277343 -0.808594,2.457032 -1.386719,2.523437 -2.003906,2.476563 -2.632813,2.222656 -3.273437,1.761719 -3.890625,1.148437 -4.484375,0.382813 -6.59375,-0.6875 L 15.855468,59.778175 13.296875,58.516457 10.972656,56.832863 8.84375,54.688332 5.75,49.860207 3.8281252,44.157082 3.1875,37.719582 3.5898435,32.477394 4.7968745,27.813332 6.7539062,23.75474 9.40625,20.328957 l 3.257813,-2.73828 3.773437,-1.996095 4.164062,-1.21875 z m 37.373333,19.125 -1.84375,9.09375 h 6.968754 l 1.78125,-9.09375 z m 13.500004,-19.125 1.441406,0.210937 1.074219,0.632813 0.667969,0.992187 0.222656,1.289063 -0.07813,1.28125 -0.203125,1.203125 -0.15625,0.734375 -1.15625,5.875 1.95507,0.251953 1.396492,0.662109 0.837891,1.072266 0.279297,1.482422 -0.265625,1.406252 -0.796875,1.093748 -1.32032,0.703125 -1.83593,0.234375 h -1.59375 l -1.875,9.09375 h 3.46875 l 1.83593,0.25 1.32032,0.75 0.796875,1.132812 0.265625,1.398438 -0.261719,1.386718 -0.785156,1.097657 -1.316414,0.714843 -1.855461,0.238282 h -4.8125 l -1.46875,7.1875 -0.324219,1.523437 -0.285156,1.132813 -1.015625,1.640625 -2.15625,0.703125 -1.398438,-0.21875 -1.070312,-0.65625 -0.679688,-1.007813 -0.226562,-1.273437 0.4375,-3.1875 1.15625,-5.84375 h -6.906254 l -1.46875,7.1875 -0.574219,2.285156 -0.597656,1.542969 -0.957031,0.878906 -1.652344,0.292969 -1.421875,-0.21875 -1.078125,-0.65625 -0.679688,-1.007813 -0.226562,-1.273437 0.171875,-1.609375 0.296875,-1.578125 1.15625,-5.84375 -1.886719,-0.25 -1.347656,-0.65625 -0.808594,-1.0625 -0.269531,-1.46875 0.269531,-1.417969 0.808594,-1.128906 1.332031,-0.738282 1.839844,-0.246093 h 1.46875 l 1.78125,-9.09375 h -3.25 l -1.800781,-0.253907 -1.339844,-0.761718 -0.832031,-1.128907 -0.277344,-1.355468 0.269531,-1.410155 0.808594,-1.10547 1.332031,-0.714844 1.839844,-0.238281 h 4.65625 l 1.46875,-7.15625 0.363281,-1.617188 0.402344,-1.226562 1.15625,-1.5625 1.921875,-0.53125 1.460937,0.21875 1.070317,0.65625 0.65625,1.000002 0.21875,1.249998 -0.132813,0.945314 -0.398437,2.210936 -1.156254,5.8125 h 6.843754 l 1.5,-7.15625 0.59375,-2.625 1.015625,-1.6875 z"
       inkscape:connector-curvature="0"
       style="fill:#C5CB41" />
  </g>
  <ellipse
     style="fill:none;stroke:#C5CB41;stroke-width:1.047;stroke-opacity:1;stroke-miterlimit:4;stroke-dasharray:none"
     id="path4494"
     cx="16"
     cy="15.999999"
     rx="15.43409"
     ry="15.162904" />
</svg>
