<?xml version="1.0"?>
<svg width="32" height="32" xmlns="http://www.w3.org/2000/svg" xmlns:svg="http://www.w3.org/2000/svg">
 <g display="inline">
  <title>Layer 1</title>
  <path id="path1" transform="rotate(-0.0000056226081142085604 22.442544981490734,24.7674007626379) translate(3,5.954336643218994) scale(0.81252521276474) " fill="#f9f9f9" d="m8.227253,5.787246l-0.014292,0.084777c-0.055501,0.371625 -0.083501,0.749876 -0.083501,1.131876c0,3.385315 2.206055,6.178247 5.023776,6.514138l0.016217,0.001448l0,-7.237775l-0.25389,-0.00185c-2.05116,-0.029949 -3.651083,-0.276138 -4.663348,-0.487288l-0.024962,-0.005326zm10.980499,-0.085978l-0.457151,0.086371c-1.637448,0.296733 -3.149169,0.438219 -4.505244,0.480844l-0.043886,0.001148l0,7.256818l0.094219,-0.008412c2.817719,-0.335891 5.023775,-3.128823 5.023775,-6.514138c0,-0.379688 -0.027686,-0.755421 -0.082541,-1.124623l-0.029172,-0.178008zm-20.950305,-1.529356l5.397001,0c0.57,0 1.031999,0.461999 1.031999,1.032999c0,0.569999 -0.461999,1.031998 -1.031999,1.031998l-5.397001,0c-0.57,0 -1.032,-0.461999 -1.032,-1.031998c0,-0.571 0.462,-1.032999 1.032,-1.032999zm24.75799,-0.000011l5.177004,0c0.570008,0 1.032013,0.462005 1.032013,1.033019c0,0.570006 -0.462005,1.031981 -1.032013,1.031981l-5.177004,0c-0.570007,0 -1.031983,-0.461975 -1.031982,-1.031981c-0.000001,-0.571014 0.461975,-1.033019 1.031982,-1.033019zm-9.225977,-4.33001c-2.799765,0.001786 -4.872944,3.500914 -5.330613,4.805534l-0.038952,0.118406l0.00474,0.000995c1.732646,0.35766 5.43026,0.857487 10.171461,-0.000833l0.363603,-0.070045l-0.013234,-0.043051l0.01383,-0.004563l-0.013675,-0.04697c-0.403784,-1.335959 -2.268643,-4.759473 -5.15516,-4.759473l-0.002,0zm-10.285239,-5.390747c0.519345,-0.011335 0.98519,0.362799 1.056435,0.892503c0.218985,1.616053 0.866937,3.150103 1.875864,4.436144c0.392847,0.501392 0.836221,0.960672 1.320744,1.368463l0.185656,0.151592l0.122741,-0.170776c0.68614,-0.9227 1.559994,-1.810807 2.599489,-2.440824l0.126368,-0.07402l-0.047877,-0.12595c-0.094374,-0.270596 -0.142195,-0.55258 -0.142195,-0.841315c0,-0.813956 0.380061,-1.568915 1.043166,-2.073888c0.226035,-0.170991 0.551086,-0.126993 0.723114,0.098995c0.173027,0.226988 0.12902,0.54997 -0.098016,0.723961c-0.404063,0.305983 -0.6351,0.762959 -0.6351,1.250932c0,0.172491 0.028129,0.341045 0.084387,0.502708l0.006815,0.016534l0.100908,-0.03876c0.610764,-0.222351 1.26577,-0.350257 1.96174,-0.350556l0.003,0c0.615751,0 1.223204,0.100828 1.813238,0.298372l0.079692,0.029l0.019384,-0.079343c0.018376,-0.094886 0.027626,-0.191646 0.027626,-0.289158c0,-0.507056 -0.259015,-0.990111 -0.692041,-1.293145c-0.234014,-0.163018 -0.291017,-0.484054 -0.128007,-0.71808c0.16401,-0.235027 0.484028,-0.292034 0.719042,-0.128015c0.709042,0.496056 1.133067,1.295146 1.133067,2.13924c0,0.246028 -0.034877,0.488118 -0.103787,0.721629l-0.023688,0.073701l0.122849,0.066992c0.562752,0.324669 1.102003,0.74331 1.608628,1.251811c0.370781,0.371657 0.709933,0.778964 1.013519,1.199048l0.120045,0.169626l0.107421,-0.088586c0.441951,-0.374561 0.849733,-0.791614 1.214637,-1.243122c1.049082,-1.298021 1.726136,-2.855046 1.956154,-4.501073c0.06856,-0.496591 0.482444,-0.866492 0.963267,-0.889727c0.032055,-0.00155 0.064407,-0.001557 0.096975,0.00004c0.034738,0.001703 0.069721,0.005235 0.104849,0.010673c0.564045,0.079001 0.958075,0.60001 0.879069,1.165019c-0.281022,2.018032 -1.109087,3.924063 -2.394188,5.51309c-0.51004,0.63101 -1.088085,1.207019 -1.719135,1.714028c-0.047754,0.038 -0.09782,0.071188 -0.149605,0.099595l-0.035835,0.017727l0.008787,0.019016c0.130063,0.288403 0.238826,0.564989 0.324852,0.821421l0.048281,0.14953l0.00091,-0.0003c0.316,0.959001 0.476,1.968002 0.476,2.998003c0,0.890438 -0.120797,1.749763 -0.344929,2.558337l-0.020856,0.072084l0.021753,0.003461c0.194654,0.040611 0.379763,0.137737 0.529013,0.291112c2.147999,2.214005 3.330998,5.13201 3.330998,8.217016c0,0.570002 -0.462,1.032002 -1.031999,1.032002c-0.57,0 -1.032,-0.462 -1.032,-1.032002c0,-2.466442 -0.915952,-4.802436 -2.58512,-6.606136l-0.0119,-0.012554l-0.164829,0.288853c-1.377804,2.291456 -3.709759,3.800832 -6.349134,3.800832c-2.639377,0 -4.971331,-1.509376 -6.349135,-3.800832l-0.13892,-0.24345l-0.11023,0.121399c-1.579783,1.7825 -2.444659,4.054811 -2.444659,6.451923c0,0.569982 -0.462017,1.031967 -1.03204,1.031967c-0.57002,0 -1.032037,-0.461985 -1.032037,-1.031967c0,-3.098902 1.192045,-6.025809 3.357126,-8.242739c0.124692,-0.127496 0.274287,-0.21593 0.433465,-0.265121l0.022618,-0.005811l-0.020263,-0.070037c-0.224132,-0.808574 -0.344929,-1.667899 -0.344929,-2.558337c0,-0.729001 0.079875,-1.447314 0.238781,-2.144814l0.006515,-0.026275l0.010013,-0.080554c0.054424,-0.379102 0.223179,-0.913339 0.498032,-1.51939l0.078302,-0.165806l-0.063938,-0.031459c-0.051419,-0.028079 -0.101165,-0.060955 -0.148662,-0.098707c-0.69395,-0.549018 -1.323904,-1.183038 -1.872864,-1.883061c-1.234911,-1.574051 -2.028854,-3.453113 -2.296835,-5.433177c-0.075994,-0.565018 0.319977,-1.085035 0.884938,-1.162037c0.034997,-0.004251 0.069858,-0.006719 0.10448,-0.007475z"/>
 </g>
 <g display="inline">
  <title>Layer 2</title>
  <path d="m9.776649,7.95275l15.432991,9.91814l-15.432991,9.91814l0,-19.836281l0,0.000001z" fill="#89D185" transform="translate(5.764937400817871,3) scale(1.0125000476837158) " id="path1" stroke="#999999"/>
 </g>
</svg>