<svg width="32" height="32" xmlns="http://www.w3.org/2000/svg" xmlns:svg="http://www.w3.org/2000/svg">
 <metadata id="metadata3689">image/svg+xml</metadata>

 <g>
  <title>Layer 1</title>
  <g transform="matrix(1.213994,0,0,1.2194042,-5.2682158,-3.4233654) " id="g3681">
   <path transform="rotate(-1.0039561986923218 16.000005722045657,16.148855209350607) " fill="#333333" d="m7.219562,6.907148l7.311628,0.127625l-0.028361,1.624806l-6.499225,-0.113444l-0.326153,18.685271l15.435659,0.26943l0.155986,-8.936434l1.624806,0.028361l-0.170167,9.748837c-0.007842,0.449243 -0.378137,0.80605 -0.826584,0.798223l-17.060465,-0.297792c-0.448447,-0.007828 -0.806064,-0.377341 -0.798223,-0.826584l0.354514,-20.310077c0.007843,-0.44934 0.378137,-0.80605 0.826584,-0.798223zm15.609934,-1.612081l-0.660698,0.140433c-3.432179,0.951028 -5.240973,3.967708 -5.327999,8.953418c-0.007842,0.449259 -0.378137,0.80605 -0.826584,0.798223l-2.000957,-0.034927l3.96628,3.833421l4.097649,-3.692665l-2.000949,-0.034927c-0.448455,-0.007828 -0.806072,-0.377325 -0.798231,-0.826584c0.047079,-2.697178 0.260351,-5.32481 2.326291,-7.802277l1.225197,-1.334115zm2.344356,-2.136788c0.278348,0.009824 0.538209,0.158833 0.680441,0.408264c0.175862,0.307001 0.132569,0.692246 -0.106825,0.952179l-2.920111,3.180128c-1.517291,1.819858 -1.823834,3.785185 -1.903856,5.948681l3.243113,0.056609c0.333898,0.005828 0.630115,0.214974 0.746567,0.527439c0.117234,0.313292 0.030645,0.665283 -0.217054,0.888502l-6.192295,5.580459c-0.15852,0.142697 -0.358835,0.21234 -0.557873,0.208865c-0.199039,-0.003474 -0.396801,-0.080065 -0.550244,-0.228208l-5.993768,-5.793168c-0.240563,-0.231741 -0.31401,-0.586526 -0.185906,-0.895535c0.127277,-0.308211 0.430613,-0.506891 0.764511,-0.501063l3.264244,0.056978c0.366934,-6.589059 3.724727,-8.912328 6.537899,-9.690494l3.19672,-0.683713c0.064988,-0.013038 0.130203,-0.01819 0.194436,-0.015923z" id="path1"/>
  </g>
 </g>
</svg>